<svg width="48" height="48" viewBox="0 0 48 48" fill="none" xmlns="http://www.w3.org/2000/svg">
  <circle cx="24" cy="24" r="24" fill="black" />
  <path
    d="M9.58 37.504L7.528 13.6L16.096 13.06L14.944 23.932L23.296 13.06L26.5 15.508L18.904 23.464L27.796 36.964L20.164 37.504L15.304 27.244L14.512 28.072L13.54 37.144L9.58 37.504ZM32.7879 37.864C32.0439 37.864 31.2759 37.756 30.4839 37.54C29.7159 37.324 28.9599 37.024 28.2159 36.64L28.8639 34.696C29.3199 34.84 29.7519 34.96 30.1599 35.056C30.5679 35.152 30.9639 35.2 31.3479 35.2C32.3319 35.2 33.0039 34.876 33.3639 34.228C33.7479 33.58 33.9399 32.824 33.9399 31.96C33.9399 31.912 33.9279 31.804 33.9039 31.636C33.9039 31.468 33.8799 31.096 33.8319 30.52C33.7839 29.944 33.6999 29.008 33.5799 27.712C33.4839 26.416 33.3399 24.64 33.1479 22.384C32.9559 20.104 32.7039 17.176 32.3919 13.6L40.9599 13.06L38.9439 31.924C38.7759 33.484 38.3919 34.696 37.7919 35.56C37.2159 36.424 36.4839 37.024 35.5959 37.36C34.7319 37.696 33.7959 37.864 32.7879 37.864Z"
    fill="white" />
</svg>