<svg width="500" height="500" viewBox="0 0 500 500" fill="none" xmlns="http://www.w3.org/2000/svg">
  <defs>
    <mask id="kj-punchout">
      <rect width="500" height="500" fill="white" />
      <path
        d="M111.25 371.9L91.3 139.5L174.6 134.25L163.4 239.95L244.6 134.25L275.75 158.05L201.9 235.4L288.35 366.65L214.15 371.9L166.9 272.15L159.2 280.2L149.75 368.4L111.25 371.9ZM336.882 375.4C329.649 375.4 322.182 374.35 314.482 372.25C307.016 370.15 299.666 367.233 292.432 363.5L298.732 344.6C303.166 346 307.366 347.167 311.332 348.1C315.299 349.033 319.149 349.5 322.882 349.5C332.449 349.5 338.982 346.35 342.482 340.05C346.216 333.75 348.082 326.4 348.082 318C348.082 317.533 347.966 316.483 347.732 314.85C347.732 313.217 347.499 309.6 347.032 304C346.566 298.4 345.749 289.3 344.582 276.7C343.649 264.1 342.249 246.833 340.382 224.9C338.516 202.733 336.066 174.267 333.032 139.5L416.332 134.25L396.732 317.65C395.099 332.817 391.366 344.6 385.532 353C379.932 361.4 372.816 367.233 364.182 370.5C355.782 373.767 346.682 375.4 336.882 375.4Z"
        fill="black" 
      />
    </mask>
  </defs>
  <circle cx="250" cy="250" r="250" fill="white" mask="url(#kj-punchout)" />
</svg>