<svg width="30" height="30" viewBox="0 0 30 30" fill="none" xmlns="http://www.w3.org/2000/svg">
  <circle cx="15" cy="15" r="15" fill="#E30000" />
  <path
    d="M7.1 21.28L5.96 8L10.72 7.7L10.08 13.74L14.72 7.7L16.5 9.06L12.28 13.48L17.22 20.98L12.98 21.28L10.28 15.58L9.84 16.04L9.3 21.08L7.1 21.28ZM19.9933 21.48C19.5799 21.48 19.1533 21.42 18.7133 21.3C18.2866 21.18 17.8666 21.0133 17.4533 20.8L17.8133 19.72C18.0666 19.8 18.3066 19.8667 18.5333 19.92C18.7599 19.9733 18.9799 20 19.1933 20C19.7399 20 20.1133 19.82 20.3133 19.46C20.5266 19.1 20.6333 18.68 20.6333 18.2C20.6333 18.1733 20.6266 18.1133 20.6133 18.02C20.6133 17.9267 20.5999 17.72 20.5733 17.4C20.5466 17.08 20.4999 16.56 20.4333 15.84C20.3799 15.12 20.2999 14.1333 20.1933 12.88C20.0866 11.6133 19.9466 9.98667 19.7733 8L24.5333 7.7L23.4133 18.18C23.3199 19.0467 23.1066 19.72 22.7733 20.2C22.4533 20.68 22.0466 21.0133 21.5533 21.2C21.0733 21.3867 20.5533 21.48 19.9933 21.48Z"
    fill="#FFE207" />
</svg>