<svg xmlns="http://www.w3.org/2000/svg" fill="none" viewBox="0 0 96 96" id="Linkedin-Icon--Streamline-Svg-Logos">
  <desc>
    Linkedin Icon Streamline Icon: https://streamlinehq.com
  </desc>
  <path fill="#0a66c2" d="M81.0925 81.094H67.1646V59.2819c0 -5.2013 -0.0929 -11.897 -7.2439 -11.897 -7.2541 0 -8.364 5.667 -8.364 11.5183v22.1893H37.6288V36.238h13.3708v6.1299h0.1871c2.7264 -4.6617 7.7957 -7.4459 13.1923 -7.2456 14.1165 0 16.7193 9.2854 16.7193 21.3652l-0.0058 24.6065ZM21.9136 30.1067c-4.4639 0.0008 -8.0832 -3.6173 -8.084 -8.0812 -0.0008 -4.464 3.6172 -8.0834 8.0811 -8.0842 4.4638 -0.0008 8.0831 3.6173 8.0839 8.0813 0.0004 2.1436 -0.8508 4.1997 -2.3663 5.7157 -1.5155 1.5161 -3.5711 2.368 -5.7147 2.3684Zm6.9639 50.9873H14.9351V36.238h13.9424v44.856ZM88.0361 1.00701H7.93636C4.15069 0.964287 1.0462 3.99676 1 7.78248V88.2162c0.04462 3.7875 3.14886 6.823 6.93636 6.7833H88.0361c3.795 0.047 6.9114 -2.9883 6.9639 -6.7833V7.77668c-0.0541 -3.7932 -3.1708 -6.825502 -6.9639 -6.77608" stroke-width="1"></path>
</svg>